<?xml version="1.0" encoding="UTF-8"?><svg xmlns="http://www.w3.org/2000/svg" xmlns:xlink="http://www.w3.org/1999/xlink" viewBox="0 0 63.13 63.13"><defs><style>.e{fill:url(#d);}.f{fill:#0082ff;}</style><linearGradient id="d" x1="26.34" y1="36.79" x2="47.17" y2="15.96" gradientTransform="matrix(1, 0, 0, 1, 0, 0)" gradientUnits="userSpaceOnUse"><stop offset="0" stop-color="#0082ff"/><stop offset="1" stop-color="#0050d3"/></linearGradient></defs><g id="a"/><g id="b"><g id="c"><g><path class="e" d="M40.17,30.46s.06,1.09,.06,2.6c0,5.61-4.55,10.16-10.16,10.16s-10.16-4.55-10.16-10.16,4.55-10.16,10.16-10.16c1.51,0,2.43,.05,2.43,.05V3.1c-.8-.06-1.61-.11-2.43-.11C13.46,2.99,0,16.46,0,33.06s13.46,30.07,30.07,30.07,30.07-13.46,30.07-30.07c0-.96-.02-1.62-.1-2.61h-19.87Z"/><path class="f" d="M37.09,.03c8.34,2.26,16.69,2.26,25.03,0,.6-.16,1.14,.38,.98,.98-2.26,8.34-2.26,16.69,0,25.03,.16,.6-.38,1.14-.98,.98-8.34-2.26-16.69-2.26-25.03,0-.6,.16-1.14-.38-.98-.98,2.26-8.34,2.26-16.69,0-25.03-.16-.6,.38-1.14,.98-.98Z"/></g></g></g></svg>