<?xml version="1.0" encoding="utf-8"?>
<!-- Generator: Adobe Illustrator 26.5.0, SVG Export Plug-In . SVG Version: 6.00 Build 0)  -->
<svg version="1.1" id="Layer_1" xmlns="http://www.w3.org/2000/svg" xmlns:xlink="http://www.w3.org/1999/xlink" x="0px" y="0px"
	 viewBox="0 0 38.4 40" style="enable-background:new 0 0 38.4 40;" xml:space="preserve">
<style type="text/css">
	.st0{fill:url(#SVGID_1_);}
	.st1{fill:url(#SVGID_00000173863916282666403530000017884009840590603188_);}
	.st2{fill:url(#SVGID_00000044173368603112072500000000055806456077101998_);}
	.st3{fill:url(#SVGID_00000018942656839949432170000014851137258162402462_);}
	.st4{fill:url(#SVGID_00000002374334767814023450000001434879151756637348_);}
	.st5{fill:url(#SVGID_00000093144422133227588510000010753180227327864980_);}
	.st6{fill:url(#SVGID_00000103263845697764853930000011105738206104275885_);}
	.st7{fill:#2684FF;}
</style>
<g>
	
		<linearGradient id="SVGID_1_" gradientUnits="userSpaceOnUse" x1="10.7032" y1="558.3239" x2="9.2364" y2="519.8473" gradientTransform="matrix(1 0 0 1 0 -518)">
		<stop  offset="0.5" style="stop-color:#2684FF"/>
		<stop  offset="1" style="stop-color:#0052CC"/>
	</linearGradient>
	<path class="st0" d="M19.2,40c-5.1,0-10-2-13.6-5.6S0,25.9,0,20.8s2-10,5.6-13.6s8.5-5.6,13.6-5.6v3.1c-4.3,0-8.4,1.7-11.4,4.7
		s-4.7,7.2-4.7,11.4s1.7,8.4,4.7,11.4s7.2,4.7,11.4,4.7V40z"/>
	
		<linearGradient id="SVGID_00000073693126989662971990000005740154935855488651_" gradientUnits="userSpaceOnUse" x1="38.7786" y1="540.4404" x2="21.7267" y2="558.07" gradientTransform="matrix(1 0 0 1 0 -518)">
		<stop  offset="0" style="stop-color:#0E65DF"/>
		<stop  offset="1" style="stop-color:#0052CC"/>
	</linearGradient>
	<path style="fill:url(#SVGID_00000073693126989662971990000005740154935855488651_);" d="M19.2,40v-3.1c4.3,0,8.4-1.7,11.4-4.7
		s4.7-7.2,4.7-11.4h3.1c0,5.1-2,10-5.6,13.6C29.2,38,24.3,40,19.2,40z"/>
	
		<linearGradient id="SVGID_00000039101416797230383740000000297380333514362026_" gradientUnits="userSpaceOnUse" x1="28.8" y1="519.5" x2="28.8" y2="538.7592" gradientTransform="matrix(1 0 0 1 0 -518)">
		<stop  offset="0" style="stop-color:#2684FF"/>
		<stop  offset="0.59" style="stop-color:#156EE8"/>
		<stop  offset="1" style="stop-color:#0E65DF"/>
	</linearGradient>
	<path style="fill:url(#SVGID_00000039101416797230383740000000297380333514362026_);" d="M38.4,20.7h-3.1c0-4.3-1.7-8.4-4.7-11.4
		s-7.2-4.7-11.4-4.7V1.5c2.5,0,5,0.5,7.4,1.5c2.3,1,4.5,2.4,6.2,4.2C34.6,9,36,11.1,37,13.4C37.9,15.7,38.4,18.2,38.4,20.7z"/>
	
		<linearGradient id="SVGID_00000167382209659182601280000015634462818846034595_" gradientUnits="userSpaceOnUse" x1="0.1006" y1="539.7326" x2="27.982" y2="539.7326" gradientTransform="matrix(1 0 0 1 0 -518)">
		<stop  offset="0.26" style="stop-color:#2684FF"/>
		<stop  offset="1" style="stop-color:#0E65DF"/>
	</linearGradient>
	<path style="fill:url(#SVGID_00000167382209659182601280000015634462818846034595_);" d="M27.4,26.7c-2.2-0.5-4.3-1.3-6.3-2.3
		l-2.5-1.1L17,22.6c-4-1.8-6.3-2.8-9-2.8c-0.8-0.1-1.5,0-2.2,0.3s-1.4,0.7-1.9,1.2c-0.3,0.3-0.5,0.7-0.6,1.1c-0.1,0.4-0.1,0.8,0,1.2
		l-3,0.6c-0.2-0.8-0.2-1.7,0-2.5s0.6-1.6,1.1-2.3c0.8-0.9,1.8-1.6,3-2.1c1.1-0.5,2.3-0.6,3.6-0.5c3.4,0,6.1,1.2,10.2,3l1.6,0.7
		l2.5,1.1c1.8,1,3.7,1.7,5.7,2.3L27.4,26.7z"/>
	
		<linearGradient id="SVGID_00000119795828031887533340000009692927776601169319_" gradientUnits="userSpaceOnUse" x1="30.4227" y1="544.1024" x2="36.5116" y2="537.6284" gradientTransform="matrix(1 0 0 1 0 -518)">
		<stop  offset="0" style="stop-color:#0052CC"/>
		<stop  offset="1" style="stop-color:#0E65DF"/>
	</linearGradient>
	<path style="fill:url(#SVGID_00000119795828031887533340000009692927776601169319_);" d="M30.4,26.9c-1,0-2-0.1-3-0.3l0.6-3
		c0.8,0.2,1.6,0.2,2.4,0.2c0.8,0.1,1.5,0,2.2-0.3c0.7-0.2,1.4-0.6,1.9-1.1c0.3-0.4,0.5-0.8,0.7-1.2c0.1-0.4,0.2-0.9,0.1-1.4l3.1-0.3
		c0.1,0.9,0,1.8-0.3,2.6s-0.7,1.6-1.3,2.3c-0.8,0.8-1.9,1.5-3,1.9C32.8,26.9,31.6,27,30.4,26.9z"/>
	
		<linearGradient id="SVGID_00000171688152651528657730000011305715498823818881_" gradientUnits="userSpaceOnUse" x1="23.6509" y1="558" x2="23.6509" y2="521.2" gradientTransform="matrix(1 0 0 1 0 -518)">
		<stop  offset="0.36" style="stop-color:#2684FF"/>
		<stop  offset="1" style="stop-color:#0052CC"/>
	</linearGradient>
	<path style="fill:url(#SVGID_00000171688152651528657730000011305715498823818881_);" d="M19.2,40v-3.1c4.4,0,7-4.4,7-12
		c0-3.6-0.7-7.3-2.1-10.6c-1.4-3.4-3.4-6.4-6-9l2.2-2.1c2.8,2.9,5.1,6.3,6.6,10s2.3,7.7,2.3,11.8C29.3,34.2,25.4,40,19.2,40z"/>
	
		<linearGradient id="SVGID_00000084516623621573343470000002370896142826630809_" gradientUnits="userSpaceOnUse" x1="14.55" y1="558" x2="14.55" y2="521.2" gradientTransform="matrix(1 0 0 1 0 -518)">
		<stop  offset="6.000000e-02" style="stop-color:#2684FF"/>
		<stop  offset="0.58" style="stop-color:#0052CC"/>
		<stop  offset="1" style="stop-color:#2684FF"/>
	</linearGradient>
	<path style="fill:url(#SVGID_00000084516623621573343470000002370896142826630809_);" d="M19.2,40c-6.6,0-10.4-5.4-10.4-14.8
		c0-11,4.8-17.1,9.2-22l2.3,2.1c-5.2,5.7-8.5,11-8.5,19.9c0,9.7,4,11.7,7.4,11.7V40z"/>
	<path class="st7" d="M11,22.3c2,0,3.6-1.6,3.6-3.6S13,15.1,11,15.1s-3.6,1.6-3.6,3.6S9,22.3,11,22.3z"/>
	<path class="st7" d="M27.6,28.5c2,0,3.6-1.6,3.6-3.6s-1.6-3.6-3.6-3.6S24,22.9,24,24.9C24,26.9,25.6,28.5,27.6,28.5z"/>
	<path class="st7" d="M19.2,7.2c2,0,3.6-1.6,3.6-3.6S21.2,0,19.2,0s-3.6,1.6-3.6,3.6S17.2,7.2,19.2,7.2z"/>
</g>
</svg>
