<svg id="Layer_1" data-name="Layer 1" xmlns="http://www.w3.org/2000/svg" xmlns:xlink="http://www.w3.org/1999/xlink" viewBox="0 0 60 60"><defs><style>.cls-1{fill-rule:evenodd;fill:url(#linear-gradient);}</style><linearGradient id="linear-gradient" x1="30" y1="662" x2="30" y2="722" gradientTransform="matrix(1, 0, 0, -1, 0, 722)" gradientUnits="userSpaceOnUse"><stop offset="0" stop-color="#0052cc"/><stop offset="1" stop-color="#2684ff"/></linearGradient></defs><path class="cls-1" d="M52.88,0H7.13A7.14,7.14,0,0,0,0,7.13v45.7A7.13,7.13,0,0,0,7.1,60H52.88A7.13,7.13,0,0,0,60,52.85V7.13A7.14,7.14,0,0,0,52.88,0Zm-27,43.22a2.39,2.39,0,0,1-2.4,2.37h-10a2.38,2.38,0,0,1-2.37-2.37V13.45a2.38,2.38,0,0,1,2.37-2.38h10a2.4,2.4,0,0,1,2.38,2.38ZM49,29.55a2.38,2.38,0,0,1-2.38,2.37h-10a2.38,2.38,0,0,1-2.38-2.37V13.45a2.4,2.4,0,0,1,2.38-2.38h10a2.38,2.38,0,0,1,2.37,2.38Z"/></svg>